<svg width="18" height="18" viewBox="0 0 18 18" fill="none" xmlns="http://www.w3.org/2000/svg">
<path d="M8.9962 17.105C7.14817 17.105 5.32401 16.4747 3.86039 15.331L3.76727 15.2594L3.69325 15.3501C3.61207 15.448 3.49269 15.5077 3.36615 15.5125C3.36137 15.5125 3.3566 15.5125 3.35182 15.5125C3.2205 15.5125 3.09873 15.4552 3.01278 15.3525C1.72823 13.7958 0.935532 11.9095 0.720645 9.90154L0.708707 9.78454L0.591712 9.7941C0.579774 9.7941 0.567836 9.79648 0.555898 9.79648C0.508145 9.79648 0.460392 9.78932 0.415027 9.77261C0.224016 9.70814 0.102247 9.5219 0.11896 9.32134C0.283707 7.29185 1.0382 5.37696 2.30365 3.77963L2.37528 3.6889L2.28455 3.61489C2.2368 3.57669 2.20098 3.52893 2.17233 3.47402C2.0816 3.29256 2.12458 3.07528 2.27739 2.94396C2.93876 2.37093 3.6646 1.88862 4.4382 1.5066L4.58862 1.43259L4.47162 1.31559C4.40238 1.24874 4.35941 1.1604 4.34747 1.06489C4.31882 0.864328 4.43103 0.673317 4.61727 0.596912C5.39803 0.281744 6.21699 0.119385 7.05266 0.119385C7.69732 0.119385 8.3396 0.217278 8.96039 0.408289L8.9962 0.420227L9.03201 0.408289C9.6528 0.217278 10.2951 0.119385 10.9397 0.119385C11.7754 0.119385 12.5968 0.279357 13.3751 0.596912C13.5614 0.673317 13.6736 0.864328 13.6449 1.06489C13.6306 1.1604 13.5876 1.24635 13.5208 1.31559L13.4038 1.43259L13.5518 1.5066C14.3159 1.88385 15.0345 2.36138 15.6911 2.92725L15.6959 2.93202C15.8034 3.01559 15.8654 3.14213 15.8654 3.28062C15.8654 3.41194 15.8081 3.5361 15.7055 3.61966L15.6147 3.69368L15.6864 3.78441C16.9423 5.37219 17.6968 7.27514 17.8663 9.2903V9.29508V9.29747C17.8687 9.31896 17.8711 9.34044 17.8711 9.36193C17.8711 9.59831 17.6848 9.79171 17.4484 9.80126C17.4437 9.80126 17.4365 9.80126 17.4317 9.80126C17.4198 9.80126 17.4078 9.80126 17.3959 9.79887L17.2789 9.78932L17.267 9.90631C17.0521 11.9143 16.2594 13.7982 14.9748 15.3573C14.8913 15.4576 14.7671 15.5173 14.6358 15.5173C14.5689 15.5173 14.5069 15.5029 14.4472 15.4743C14.3875 15.4456 14.3373 15.405 14.2944 15.3549L14.2204 15.2642L14.1272 15.3358C12.6708 16.4747 10.8466 17.105 8.9962 17.105ZM3.22289 13.7146C3.34466 13.7146 3.46165 13.7647 3.54522 13.8555C4.95154 15.3645 6.93806 16.2288 8.99859 16.2288C11.0591 16.2288 13.0456 15.3645 14.452 13.8555C14.5355 13.7671 14.6525 13.7146 14.7743 13.7146C14.8316 13.7146 14.8865 13.7241 14.939 13.7456L15.0321 13.7838L15.0847 13.6979C15.9872 12.2128 16.46 10.5104 16.4528 8.77935V8.77219C16.4528 8.72205 16.4528 8.67191 16.4504 8.61938C16.4456 8.43792 16.5555 8.27078 16.7226 8.20393L16.8157 8.16573L16.7942 8.06783C16.4027 6.35351 15.5407 4.78722 14.3039 3.54326L14.2968 3.5361C14.2824 3.51938 14.2657 3.50506 14.249 3.48834L14.2371 3.4764L14.2347 3.47402C14.2299 3.47163 14.2275 3.46685 14.2227 3.46447L14.206 3.44775C14.0747 3.32121 14.0365 3.12303 14.1081 2.95829L14.1487 2.86517L14.0628 2.81025C13.3584 2.35899 12.5944 2.00084 11.7897 1.75014C11.6131 1.69523 11.4889 1.53287 11.4817 1.34663C11.4793 1.28933 11.4889 1.23441 11.508 1.18188L11.5605 1.03624L11.4053 1.0243C11.2525 1.01236 11.0973 1.0052 10.9445 1.0052C10.3333 1.0052 9.72682 1.10548 9.14423 1.30365C9.09887 1.31798 9.05112 1.32753 9.00336 1.32753C8.95561 1.32753 8.90786 1.32037 8.86249 1.30365C8.27036 1.09832 7.6639 0.998036 7.05266 0.998036C6.89985 0.998036 6.74466 1.0052 6.59185 1.01714L6.43665 1.02907L6.48918 1.17472C6.50828 1.22725 6.51544 1.28216 6.51544 1.33947C6.50828 1.5257 6.38412 1.68568 6.20744 1.74298C5.4028 1.99368 4.63876 2.34944 3.93441 2.80309L3.84845 2.85801L3.88904 2.95112C3.96067 3.11826 3.92247 3.31405 3.79354 3.44059L3.77443 3.45969C3.76966 3.46447 3.76727 3.46685 3.7625 3.46924L3.76011 3.47163L3.69803 3.5361C2.45885 4.78244 1.59452 6.34873 1.20295 8.06545L1.18146 8.16334L1.27458 8.20154C1.44171 8.27078 1.55154 8.43792 1.54677 8.61699C1.50857 10.4077 1.98132 12.165 2.9125 13.6955L2.96502 13.7815L3.05814 13.7432C3.11067 13.7241 3.16559 13.7146 3.22289 13.7146Z" fill="#C3A583"/>
<path d="M10.9398 0.238764C11.7611 0.238764 12.5657 0.396348 13.3298 0.706741C13.4659 0.761657 13.5471 0.902527 13.5256 1.04817C13.516 1.11741 13.485 1.17949 13.4348 1.22963L13.2008 1.46362L13.4993 1.61166C14.2538 1.98652 14.9653 2.45688 15.6147 3.01559L15.6195 3.02036L15.6243 3.02514C15.7031 3.08722 15.7485 3.17795 15.7485 3.27823C15.7485 3.37373 15.7055 3.46446 15.6315 3.52415L15.4524 3.67219L15.598 3.85604C16.2093 4.63202 16.7059 5.49157 17.0712 6.4132C17.4389 7.33721 17.6657 8.30898 17.7517 9.29746V9.30463V9.31179C17.7541 9.3285 17.7541 9.34283 17.7541 9.35954C17.7541 9.53145 17.618 9.67232 17.4461 9.67949C17.4413 9.67949 17.4389 9.67949 17.4341 9.67949C17.4246 9.67949 17.4174 9.67949 17.4079 9.67949L17.1763 9.66039L17.1524 9.89199C17.0473 10.8733 16.8014 11.8331 16.417 12.7452C16.0326 13.6621 15.5169 14.5145 14.8865 15.2785C14.8244 15.3525 14.7361 15.3955 14.6382 15.3955C14.5905 15.3955 14.5451 15.3859 14.5021 15.3645C14.4591 15.343 14.4209 15.3143 14.3923 15.2785L14.2442 15.097L14.0604 15.2427C12.6183 16.3696 10.818 16.9904 8.99621 16.9904C7.17445 16.9904 5.37655 16.3696 3.93203 15.2427L3.74818 15.0994L3.60015 15.2809C3.54046 15.3525 3.45451 15.3955 3.36139 15.3979C3.359 15.3979 3.35422 15.3979 3.35184 15.3979C3.25633 15.3979 3.16799 15.3549 3.10591 15.2809C2.47319 14.5145 1.95984 13.6621 1.57543 12.7476C1.19341 11.8355 0.945098 10.8757 0.842429 9.89437L0.818553 9.66277L0.586952 9.68187C0.577401 9.68187 0.570238 9.68187 0.560688 9.68187C0.524873 9.68187 0.491446 9.6771 0.458019 9.66516C0.319536 9.61741 0.228806 9.4837 0.240744 9.33567C0.321924 8.34002 0.54875 7.36348 0.916446 6.4323C1.28175 5.50589 1.78077 4.63918 2.39917 3.85842L2.54482 3.67458L2.36574 3.52654C2.33232 3.49789 2.30366 3.46446 2.28456 3.42387C2.21771 3.29255 2.24875 3.13497 2.36097 3.03708C3.01518 2.47121 3.73386 1.99368 4.49552 1.61404L4.79397 1.46601L4.55759 1.22963C4.50745 1.17949 4.47641 1.11741 4.46686 1.04817C4.44538 0.902527 4.52656 0.761657 4.66265 0.706741C5.42908 0.396348 6.23133 0.238764 7.05268 0.238764C7.6854 0.238764 8.31574 0.334269 8.92458 0.522893L8.99621 0.544382L9.06784 0.522893C9.67669 0.334269 10.3046 0.238764 10.9398 0.238764ZM8.99621 1.20098C8.9604 1.20098 8.92697 1.19621 8.89355 1.18427C8.29664 0.981319 7.67824 0.878651 7.05268 0.878651C6.89748 0.878651 6.73751 0.885814 6.58231 0.897752L6.27192 0.924016L6.37697 1.2177C6.3913 1.2559 6.39608 1.29649 6.39608 1.33708C6.3913 1.47317 6.30057 1.59017 6.17164 1.63076C5.35507 1.88385 4.58147 2.24438 3.86757 2.70281L3.69566 2.81264L3.77684 2.99887C3.82936 3.12064 3.80071 3.2639 3.7076 3.35463L3.68849 3.37135C3.68611 3.37373 3.68372 3.37612 3.68133 3.37851L3.67656 3.38328L3.67178 3.38806L3.6097 3.45014C2.35619 4.7132 1.48232 6.29859 1.08597 8.03918L1.0406 8.23735L1.22923 8.31376C1.351 8.3639 1.42979 8.48567 1.4274 8.61699C1.3892 10.4316 1.86673 12.208 2.80984 13.76L2.9149 13.9343L3.10352 13.8579C3.14172 13.8435 3.18231 13.834 3.2229 13.834C3.31125 13.834 3.3972 13.8722 3.45689 13.9366C4.8847 15.4695 6.90464 16.3482 8.9986 16.3482C11.0902 16.3482 13.1101 15.4695 14.5379 13.9366C14.5976 13.8722 14.6836 13.834 14.7719 13.834C14.8125 13.834 14.8531 13.8411 14.8913 13.8579L15.0799 13.9343L15.185 13.76C16.0994 12.2557 16.5794 10.5343 16.5698 8.77935V8.77218V8.7698C16.5698 8.7101 16.5698 8.66235 16.5674 8.61699C16.565 8.48567 16.6438 8.3639 16.7656 8.31376L16.9542 8.23735L16.9088 8.03918C16.5125 6.30337 15.6386 4.71797 14.3875 3.4573L14.3803 3.45014C14.3636 3.43342 14.3469 3.41671 14.3326 3.40238L14.3206 3.39045L14.3159 3.38567L14.3111 3.38328C14.3087 3.3809 14.3063 3.37851 14.3015 3.37612L14.2848 3.35941C14.1893 3.26629 14.1607 3.12303 14.2132 3.00126L14.2944 2.81503L14.1225 2.70519C13.4086 2.24677 12.635 1.88623 11.8184 1.63314C11.6895 1.59255 11.5987 1.47556 11.594 1.33947C11.5916 1.29888 11.5987 1.25829 11.6131 1.22008L11.7181 0.926404L11.4077 0.90014C11.2525 0.888201 11.0926 0.881039 10.9374 0.881039C10.3142 0.881039 9.6934 0.983707 9.09888 1.18666C9.06546 1.19621 9.03203 1.20098 8.99621 1.20098ZM10.9398 0C10.2808 0 9.62894 0.0978932 8.99621 0.29368C8.36349 0.0978932 7.71166 0 7.05268 0C6.20029 0 5.367 0.162359 4.57192 0.484691C4.33316 0.580196 4.19229 0.826123 4.2281 1.07921C4.24481 1.20337 4.30212 1.3132 4.38568 1.39677C3.60254 1.78357 2.87192 2.27064 2.201 2.85084C2.0076 3.01797 1.95268 3.29733 2.06729 3.52654C2.1031 3.59578 2.15086 3.65786 2.20816 3.70561C0.94271 5.30772 0.169115 7.26081 0.00198046 9.31418C-0.0195083 9.56965 0.135688 9.80603 0.379227 9.8896C0.438918 9.9087 0.498609 9.91825 0.5583 9.91825C0.572626 9.91825 0.589339 9.91825 0.603665 9.91586C0.818553 11.931 1.61841 13.8507 2.92206 15.4289C3.03189 15.5602 3.18948 15.6319 3.35184 15.6319C3.359 15.6319 3.36378 15.6319 3.37094 15.6319C3.53807 15.6271 3.68849 15.5483 3.78877 15.4265C5.26672 16.5821 7.1052 17.2244 8.9986 17.2244C10.892 17.2244 12.7305 16.5798 14.2084 15.4241C14.2586 15.4862 14.3254 15.5388 14.4018 15.577C14.4782 15.6128 14.5618 15.6319 14.643 15.6319C14.8053 15.6319 14.9653 15.5602 15.0751 15.4289C16.374 13.8531 17.1787 11.9286 17.3935 9.91586C17.4103 9.91825 17.4246 9.91825 17.4413 9.91825C17.4485 9.91825 17.4556 9.91825 17.4628 9.91825C17.7612 9.90631 18 9.66038 18 9.35954C18 9.33089 17.9976 9.30463 17.9928 9.27598C17.8185 7.23693 17.0473 5.29817 15.7867 3.708C15.9108 3.60533 15.9896 3.45014 15.9896 3.27823C15.9896 3.09915 15.906 2.93918 15.7723 2.83651C15.1062 2.26348 14.3827 1.78357 13.6091 1.39916C13.6927 1.31559 13.75 1.20576 13.7667 1.0816C13.8025 0.82851 13.6617 0.582584 13.4229 0.487078C12.6254 0.162359 11.7921 0 10.9398 0ZM8.99621 1.43975C9.0559 1.43975 9.11798 1.4302 9.17529 1.41109C9.74593 1.2177 10.3405 1.11741 10.9374 1.11741C11.0878 1.11741 11.2382 1.12458 11.3886 1.13652C11.3648 1.20337 11.3528 1.27261 11.3576 1.34663C11.3671 1.583 11.5247 1.78834 11.7492 1.85758C12.5466 2.1059 13.2987 2.45688 13.9935 2.90337C13.9004 3.11587 13.9506 3.36418 14.1177 3.52654L14.1344 3.54326C14.1392 3.54803 14.144 3.55281 14.1487 3.55519L14.1607 3.56713C14.1774 3.58385 14.1941 3.60056 14.2084 3.61488L14.2156 3.62205C15.4405 4.85646 16.2905 6.40842 16.6749 8.08932C16.4624 8.17766 16.3239 8.38539 16.3287 8.61937C16.3287 8.66951 16.331 8.72204 16.331 8.7698C16.331 8.77218 16.331 8.77457 16.331 8.77935C16.3382 10.4961 15.8655 12.1793 14.9796 13.6358C14.9128 13.6095 14.8412 13.5952 14.7719 13.5952C14.6191 13.5952 14.4711 13.6573 14.3636 13.7719C12.9812 15.257 11.0257 16.107 8.9986 16.107C6.9715 16.107 5.01602 15.2546 3.63358 13.7719C3.52613 13.6549 3.37571 13.5952 3.22529 13.5952C3.15605 13.5952 3.08442 13.6072 3.01518 13.6358C2.10071 12.134 1.62796 10.3934 1.66378 8.61937C1.66855 8.38777 1.53007 8.17766 1.31757 8.08932C1.70198 6.40603 2.55198 4.85168 3.78161 3.61727L3.84369 3.55519C3.84847 3.55042 3.85324 3.54564 3.85802 3.54087L3.87712 3.52177C4.04425 3.35941 4.092 3.11109 3.99889 2.89859C4.69608 2.4521 5.4458 2.10112 6.24327 1.85281C6.47009 1.78357 6.62529 1.57823 6.63484 1.34185C6.63723 1.27022 6.62529 1.19859 6.6038 1.13174C6.75422 1.1198 6.90464 1.11264 7.05506 1.11264C7.65197 1.11264 8.2465 1.21053 8.81714 1.40632C8.87444 1.4302 8.93652 1.43975 8.99621 1.43975Z" fill="white"/>
<path d="M16.8897 8.77458C16.8897 13.1344 13.356 16.6681 8.99851 16.6681C4.63869 16.6657 1.10498 13.132 1.10498 8.77458C1.10498 4.41475 4.63869 0.881042 8.99851 0.881042C13.356 0.881042 16.8897 4.41475 16.8897 8.77458Z" fill="#5B2A0D"/>
<path d="M2.5686 3.27584C3.1297 3.1493 3.71228 3.08006 4.31158 3.08006C6.06649 3.08006 7.68531 3.65309 8.99613 4.62247V0.881042C6.53686 0.881042 4.29248 1.78596 2.5686 3.27584Z" fill="#5B2A0D"/>
<path d="M4.78198 1.00282C5.13297 1.04102 5.48634 1.11504 5.83493 1.23442C6.85445 1.58063 7.68535 2.23484 8.256 3.05857L8.99616 0.881048C7.56597 0.39397 6.08086 0.477537 4.78198 1.00282Z" fill="#5B2A0D"/>
<path d="M8.99609 0.881048L9.73626 3.05857C10.3069 2.23484 11.1354 1.58301 12.1573 1.23442C12.5059 1.11504 12.8593 1.04102 13.2103 1.00282C11.9114 0.477537 10.4263 0.39397 8.99609 0.881048Z" fill="#5B2A0D"/>
<path d="M0.55835 9.35955C0.87113 8.87486 1.23644 8.41882 1.66383 7.9986C2.91495 6.76897 4.47169 6.04312 6.08573 5.81391L3.46411 3.14453C1.71158 4.86841 0.742198 7.08652 0.55835 9.35955Z" fill="#5B2A0D"/>
<path d="M3.35184 15.0732C3.23723 14.5097 3.18232 13.9247 3.19664 13.3254C3.23723 11.5705 3.84847 9.96601 4.8465 8.67668L1.10746 8.59073C1.05016 11.05 1.90016 13.3159 3.35184 15.0732Z" fill="#5B2A0D"/>
<path d="M8.99609 0.881042V4.62247C10.3069 3.65548 11.9281 3.08006 13.6806 3.08006C14.2799 3.08006 14.8625 3.1493 15.4236 3.27584C13.6997 1.78596 11.4554 0.881042 8.99609 0.881042Z" fill="#5B2A0D"/>
<path d="M14.5284 3.14453L11.9067 5.81391C13.5208 6.04074 15.0775 6.76897 16.3286 7.9986C16.756 8.41882 17.1237 8.87725 17.4341 9.35955C17.2503 7.08652 16.2809 4.86841 14.5284 3.14453Z" fill="#5B2A0D"/>
<path d="M16.8875 8.59073L13.1484 8.67668C14.1465 9.96362 14.7577 11.5705 14.7983 13.3254C14.8126 13.9247 14.7577 14.5097 14.6431 15.0732C16.0924 13.3159 16.9448 11.05 16.8875 8.59073Z" fill="#5B2A0D"/>
<path d="M15.8393 8.77458C15.8393 12.5542 12.7759 15.6176 8.99629 15.6176C5.21666 15.6176 2.15332 12.5542 2.15332 8.77458C2.15332 4.99495 5.21666 1.93161 8.99629 1.93161C12.7759 1.93161 15.8393 4.99495 15.8393 8.77458Z" fill="#472010"/>
<path d="M8.99629 4.50548C5.26441 2.55956 2.15332 5.97627 2.15332 8.85815C2.15332 11.74 4.41441 15.6176 8.99629 15.6176C13.5352 15.6176 15.8393 11.74 15.8393 8.85815C15.8393 5.97627 12.7282 2.55956 8.99629 4.50548Z" fill="white"/>
<path d="M10.1782 9.96839C10.1782 10.274 9.65055 10.933 8.99633 10.933C8.34451 10.933 7.81445 10.274 7.81445 9.96839C7.81445 9.66277 8.34212 9.41446 8.99633 9.41446C9.64816 9.41446 10.1782 9.66277 10.1782 9.96839Z" fill="#472010"/>
<path d="M5.59373 5.71362C5.02309 5.71362 4.48348 5.99775 4.10385 6.25323C3.44963 6.69255 2.69514 7.72401 2.35132 8.90351C2.11494 9.71053 2.32983 11.0046 2.79065 11.6636C2.79065 9.8323 5.53643 9.82752 6.59177 9.09929C7.1839 8.68862 7.65188 7.98427 7.65188 7.36826C7.65188 6.45857 6.50342 5.71362 5.59373 5.71362Z" fill="#472010"/>
<path d="M8.99613 12.4897C8.16523 12.4897 7.41552 12.1913 7.03588 11.7114C6.96903 11.6254 6.98335 11.5036 7.06931 11.4368C7.15526 11.3699 7.27703 11.3843 7.34389 11.4702C7.64473 11.8522 8.29417 12.1006 8.99613 12.1006C9.6981 12.1006 10.3475 11.8522 10.6484 11.4702C10.7152 11.3843 10.837 11.3699 10.923 11.4368C11.0089 11.5036 11.0232 11.6254 10.9564 11.7114C10.5767 12.1913 9.82703 12.4897 8.99613 12.4897Z" fill="#472010"/>
<path d="M6.34594 8.07261C6.2958 8.07261 6.24566 8.05351 6.20746 8.01531C5.97347 7.78132 5.59145 7.78132 5.35746 8.01531C5.28106 8.09171 5.1569 8.09171 5.0805 8.01531C5.00409 7.9389 5.00409 7.81474 5.0805 7.73834C5.46729 7.35154 6.09524 7.35154 6.48204 7.73834C6.55844 7.81474 6.55844 7.9389 6.48204 8.01531C6.44623 8.05351 6.39609 8.07261 6.34594 8.07261Z" fill="white"/>
<path d="M8.28223 12.8455C8.53532 13.0986 8.99852 13.1153 8.99852 13.1153C8.99852 13.1153 9.45933 13.0986 9.71481 12.8455H8.28223Z" fill="#472010"/>
<path d="M4.24964 14.0775C4.17562 13.8626 4.1398 13.6406 4.14936 13.4137C4.17562 12.7476 4.57197 12.1364 5.21902 11.6469L2.79556 11.6135C2.75736 12.547 3.30891 13.409 4.24964 14.0775Z" fill="white"/>
<path d="M13.7333 14.0775C13.8073 13.8626 13.8431 13.6406 13.8336 13.4137C13.8073 12.7476 13.411 12.1364 12.7639 11.6469L15.1874 11.6135C15.2256 12.547 14.674 13.409 13.7333 14.0775Z" fill="white"/>
<path d="M12.3914 5.71362C12.962 5.71362 13.5016 5.99775 13.8813 6.25323C14.5355 6.69255 15.29 7.72401 15.6338 8.90351C15.8702 9.71053 15.6553 11.0046 15.1945 11.6636C15.1945 9.8323 12.4487 9.82752 11.3934 9.09929C10.8012 8.68862 10.3333 7.98427 10.3333 7.36826C10.3333 6.45857 11.4841 5.71362 12.3914 5.71362Z" fill="#472010"/>
<path d="M12.6086 8.07261C12.5585 8.07261 12.5084 8.05351 12.4702 8.01531C12.2362 7.78132 11.8541 7.78132 11.6202 8.01531C11.5438 8.09171 11.4196 8.09171 11.3432 8.01531C11.2668 7.9389 11.2668 7.81474 11.3432 7.73834C11.73 7.35154 12.3579 7.35154 12.7447 7.73834C12.8211 7.81474 12.8211 7.9389 12.7447 8.01531C12.7089 8.05351 12.6588 8.07261 12.6086 8.07261Z" fill="white"/>
</svg>
